<?xml version="1.0"?><svg width="2481" height="2073" xmlns="http://www.w3.org/2000/svg">
 <title>Google Maps Big Center</title>
 <g>
  <title>Layer 1</title>
  <g externalResourcesRequired="false" id="svg_1">
   <path id="svg_2" d="m991.940063,2075.628906c-38.766113,-190.300903 -107.116089,-348.664917 -189.903076,-495.439819c-61.406982,-108.87207 -132.543945,-209.363037 -198.363953,-314.937988c-21.972046,-35.244019 -40.934021,-72.477051 -62.047058,-109.054077c-42.215942,-73.136963 -76.44397,-157.934998 -74.268982,-267.932007c2.125,-107.472961 33.208008,-193.68396 78.030029,-264.171997c73.718994,-115.934967 197.200989,-210.988983 362.883972,-235.968964c135.465942,-20.424011 262.475098,14.082001 352.542969,66.747986c73.600098,43.037994 130.596069,100.527008 173.920044,168.279999c45.219971,70.716003 76.359009,154.26001 78.970947,263.231995c1.337036,55.830017 -7.804932,107.531982 -20.68396,150.417969c-13.033936,43.409058 -33.995972,79.695068 -52.645996,118.454102c-36.406006,75.658936 -82.04895,144.981934 -127.85498,214.345947c-136.437012,206.605957 -264.496094,417.309937 -320.579956,706.026855z" stroke-miterlimit="10" stroke-width="37" stroke="#000000" fill="#E81E25" clip-rule="evenodd" fill-rule="evenodd"/>
   <path id="svg_3" d="m992.379028,2170.406982c131.604004,-120.864014 211.313965,-235.977051 269.138062,-350.48999c42.891968,-84.942017 70.541992,-169.166016 106.952881,-254.061035c12.156006,-28.339966 28.508057,-56.567993 42.519043,-85.299927c28.018066,-57.449097 72.656982,-118.133057 169.030029,-178.096069c94.160034,-58.588013 193.954956,-93.755981 291.579956,-114.697021c160.565063,-34.441895 344.276978,-37.29895 502.592896,15.59314c129.444092,43.245972 204.674072,113.468872 233.778076,178.862915c23.782959,53.437988 21.427979,108.185059 -1.044922,163.103027c-23.455078,57.319946 -69.568115,116.064941 -161.10498,177.390991c-46.897949,31.416992 -98.900146,56.333008 -146.412109,74.868042c-48.087891,18.760986 -96.599854,30.391968 -145.327881,44.319946c-95.119141,27.187988 -192.419922,47.152954 -289.891113,67.07605c-290.322998,59.338989 -577.250977,124.320923 -871.809937,261.429932z" clip-rule="evenodd" fill-rule="evenodd" opacity="0.09"/>
   <circle fill="black" id="svg_4" r="450.333008" cy="898.046987" cx="995.546" clip-rule="evenodd" fill-rule="evenodd"/>
   <ellipse id="svg_5" cy="454" cx="376" stroke-linecap="null" stroke-linejoin="null" stroke-dasharray="null" stroke-width="0" fill="#d4ffaa"/>
   <ellipse id="svg_7" cy="312" cx="370" stroke-linecap="null" stroke-linejoin="null" stroke-dasharray="null" stroke-width="0" fill="#d4ffaa"/>
   <ellipse ry="168" rx="1264" id="svg_9" cy="-726" cx="-886" stroke-linecap="null" stroke-linejoin="null" stroke-dasharray="null" stroke-width="0" fill="#d4ffaa"/>
   <ellipse ry="126" rx="540" id="svg_10" cy="-730" cx="-926" stroke-linecap="null" stroke-linejoin="null" stroke-dasharray="null" stroke-width="0" fill="#d4ffaa"/>
   <circle id="svg_11" fill="#7f0000" r="416.333008" cy="897.000004" cx="995.999968" clip-rule="evenodd" fill-rule="evenodd"/>
  </g>
 </g>
</svg>